<svg id="Layer_1" data-name="Layer 1" xmlns="http://www.w3.org/2000/svg" viewBox="0 0 14 14"><defs><style>.cls-1,.cls-2{fill:#3d51d4;}.cls-2{fill-rule:evenodd;}</style></defs><path class="cls-1" d="M15,9.92V15H12V10.26c0-1.45-.91-2-1.67-2a1.77,1.77,0,0,0-1.86,2V15h-3V5.57H8.42V7.25a2.9,2.9,0,0,1,2.77-1.92C13.74,5.33,15,7,15,9.92Z" transform="translate(-1 -1)"/><path class="cls-1" d="M1,8.41l3.05-2V15H1Z" transform="translate(-1 -1)"/><path class="cls-2" d="M1,1.36V6a.37.37,0,0,0,.57.31L5.13,4a.36.36,0,0,0,0-.6L1.57,1.06A.37.37,0,0,0,1,1.36Z" transform="translate(-1 -1)"/></svg>